<?xml version="1.0" encoding="UTF-8"?><svg xmlns="http://www.w3.org/2000/svg" viewBox="0 0 1200 422" width="1200" height="422" font-family="Arial, Helvetica, sans-serif">
<rect width="1200" height="422" fill="white" stroke="black"/>
<text x="40" y="42" font-size="24" font-weight="bold">Alghosazi Hole Layout</text>
<text x="40" y="68" font-size="13">Holes are starter positions. Drill undersized and tune by measured pitch.</text>
<text x="40" y="130" font-size="13" font-weight="bold">ALG-AS3-J2</text>
<text x="40" y="150" font-size="11">A#3, 82 cm</text>
<line x1="210" y1="135" x2="1047.5" y2="135" stroke="#4a2a10" stroke-width="12" stroke-linecap="round"/>
<text x="198" y="165" font-size="10" text-anchor="end">labium</text>
<text x="1055.5" y="165" font-size="10">foot</text>
<circle cx="956.2" cy="135" r="8" fill="#111"/>
<text x="956.2" y="119" font-size="9" text-anchor="middle">1</text>
<circle cx="874.8" cy="135" r="8" fill="#111"/>
<text x="874.8" y="119" font-size="9" text-anchor="middle">2</text>
<circle cx="769.0" cy="135" r="8" fill="#111"/>
<text x="769.0" y="119" font-size="9" text-anchor="middle">3</text>
<circle cx="708.0" cy="135" r="8" fill="#111"/>
<text x="708.0" y="119" font-size="9" text-anchor="middle">4</text>
<circle cx="653.7" cy="135" r="8" fill="#111"/>
<text x="653.7" y="119" font-size="9" text-anchor="middle">5</text>
<circle cx="628.8" cy="135" r="8" fill="#1d4f91"/>
<text x="628.8" y="119" font-size="9" text-anchor="middle">6</text>
<text x="920" y="168" font-size="10">blue = back thumb</text>
<text x="40" y="208" font-size="13" font-weight="bold">ALG-AS3-SOLID</text>
<text x="40" y="228" font-size="11">A#3, 85 cm</text>
<line x1="210" y1="213" x2="1080.0" y2="213" stroke="#4a2a10" stroke-width="12" stroke-linecap="round"/>
<text x="198" y="243" font-size="10" text-anchor="end">labium</text>
<text x="1088.0" y="243" font-size="10">foot</text>
<circle cx="985.1" cy="213" r="8" fill="#111"/>
<text x="985.1" y="197" font-size="9" text-anchor="middle">1</text>
<circle cx="900.5" cy="213" r="8" fill="#111"/>
<text x="900.5" y="197" font-size="9" text-anchor="middle">2</text>
<circle cx="790.7" cy="213" r="8" fill="#111"/>
<text x="790.7" y="197" font-size="9" text-anchor="middle">3</text>
<circle cx="727.3" cy="213" r="8" fill="#111"/>
<text x="727.3" y="197" font-size="9" text-anchor="middle">4</text>
<circle cx="670.9" cy="213" r="8" fill="#111"/>
<text x="670.9" y="197" font-size="9" text-anchor="middle">5</text>
<circle cx="645.0" cy="213" r="8" fill="#1d4f91"/>
<text x="645.0" y="197" font-size="9" text-anchor="middle">6</text>

<text x="40" y="286" font-size="13" font-weight="bold">ALG-A3-J3</text>
<text x="40" y="306" font-size="11">A3, 73 cm</text>
<line x1="210" y1="291" x2="951.6" y2="291" stroke="#4a2a10" stroke-width="12" stroke-linecap="round"/>
<text x="198" y="321" font-size="10" text-anchor="end">labium</text>
<text x="959.6" y="321" font-size="10">foot</text>
<circle cx="870.6" cy="291" r="8" fill="#111"/>
<text x="870.6" y="275" font-size="9" text-anchor="middle">1</text>
<circle cx="798.6" cy="291" r="8" fill="#111"/>
<text x="798.6" y="275" font-size="9" text-anchor="middle">2</text>
<circle cx="704.9" cy="291" r="8" fill="#111"/>
<text x="704.9" y="275" font-size="9" text-anchor="middle">3</text>
<circle cx="650.9" cy="291" r="8" fill="#111"/>
<text x="650.9" y="275" font-size="9" text-anchor="middle">4</text>
<circle cx="602.8" cy="291" r="8" fill="#111"/>
<text x="602.8" y="275" font-size="9" text-anchor="middle">5</text>
<circle cx="580.8" cy="291" r="8" fill="#1d4f91"/>
<text x="580.8" y="275" font-size="9" text-anchor="middle">6</text>

<text x="40" y="364" font-size="13" font-weight="bold">ALG-B3-SOLID</text>
<text x="40" y="384" font-size="11">B3, 70 cm</text>
<line x1="210" y1="369" x2="921.9" y2="369" stroke="#4a2a10" stroke-width="12" stroke-linecap="round"/>
<text x="198" y="399" font-size="10" text-anchor="end">labium</text>
<text x="929.9" y="399" font-size="10">foot</text>
<circle cx="844.2" cy="369" r="8" fill="#111"/>
<text x="844.2" y="353" font-size="9" text-anchor="middle">1</text>
<circle cx="775.0" cy="369" r="8" fill="#111"/>
<text x="775.0" y="353" font-size="9" text-anchor="middle">2</text>
<circle cx="685.1" cy="369" r="8" fill="#111"/>
<text x="685.1" y="353" font-size="9" text-anchor="middle">3</text>
<circle cx="633.3" cy="369" r="8" fill="#111"/>
<text x="633.3" y="353" font-size="9" text-anchor="middle">4</text>
<circle cx="587.1" cy="369" r="8" fill="#111"/>
<text x="587.1" y="353" font-size="9" text-anchor="middle">5</text>
<circle cx="565.9" cy="369" r="8" fill="#1d4f91"/>
<text x="565.9" y="353" font-size="9" text-anchor="middle">6</text>

</svg>