<?xml version="1.0" encoding="UTF-8"?><svg xmlns="http://www.w3.org/2000/svg" viewBox="0 0 1200 656" width="1200" height="656" font-family="Arial, Helvetica, sans-serif">
<rect width="1200" height="656" fill="white" stroke="black"/>
<text x="40" y="42" font-size="24" font-weight="bold">Kaval Hole Layout</text>
<text x="40" y="68" font-size="13">Holes are starter positions. Drill undersized and tune by measured pitch.</text>
<text x="40" y="130" font-size="13" font-weight="bold">KAV-GS3-5H</text>
<text x="40" y="150" font-size="11">G#3, 79 cm</text>
<line x1="210" y1="135" x2="969.8" y2="135" stroke="#4a2a10" stroke-width="12" stroke-linecap="round"/>
<text x="198" y="165" font-size="10" text-anchor="end">labium</text>
<text x="977.8" y="165" font-size="10">foot</text>
<circle cx="886.9" cy="135" r="8" fill="#111"/>
<text x="886.9" y="119" font-size="9" text-anchor="middle">1</text>
<circle cx="848.9" cy="135" r="8" fill="#111"/>
<text x="848.9" y="119" font-size="9" text-anchor="middle">2</text>
<circle cx="747.2" cy="135" r="8" fill="#111"/>
<text x="747.2" y="119" font-size="9" text-anchor="middle">3</text>
<circle cx="717.1" cy="135" r="8" fill="#111"/>
<text x="717.1" y="119" font-size="9" text-anchor="middle">4</text>
<circle cx="688.6" cy="135" r="8" fill="#111"/>
<text x="688.6" y="119" font-size="9" text-anchor="middle">5</text>

<text x="40" y="208" font-size="13" font-weight="bold">KAV-A3-5H</text>
<text x="40" y="228" font-size="11">A3, 74 cm</text>
<line x1="210" y1="213" x2="919.1" y2="213" stroke="#4a2a10" stroke-width="12" stroke-linecap="round"/>
<text x="198" y="243" font-size="10" text-anchor="end">labium</text>
<text x="927.1" y="243" font-size="10">foot</text>
<circle cx="841.7" cy="213" r="8" fill="#111"/>
<text x="841.7" y="197" font-size="9" text-anchor="middle">1</text>
<circle cx="806.2" cy="213" r="8" fill="#111"/>
<text x="806.2" y="197" font-size="9" text-anchor="middle">2</text>
<circle cx="711.4" cy="213" r="8" fill="#111"/>
<text x="711.4" y="197" font-size="9" text-anchor="middle">3</text>
<circle cx="683.3" cy="213" r="8" fill="#111"/>
<text x="683.3" y="197" font-size="9" text-anchor="middle">4</text>
<circle cx="656.7" cy="213" r="8" fill="#111"/>
<text x="656.7" y="197" font-size="9" text-anchor="middle">5</text>

<text x="40" y="286" font-size="13" font-weight="bold">KAV-B3-5H</text>
<text x="40" y="306" font-size="11">B3, 67 cm</text>
<line x1="210" y1="291" x2="850.7" y2="291" stroke="#4a2a10" stroke-width="12" stroke-linecap="round"/>
<text x="198" y="321" font-size="10" text-anchor="end">labium</text>
<text x="858.7" y="321" font-size="10">foot</text>
<circle cx="780.8" cy="291" r="8" fill="#111"/>
<text x="780.8" y="275" font-size="9" text-anchor="middle">1</text>
<circle cx="748.7" cy="291" r="8" fill="#111"/>
<text x="748.7" y="275" font-size="9" text-anchor="middle">2</text>
<circle cx="663.0" cy="291" r="8" fill="#111"/>
<text x="663.0" y="275" font-size="9" text-anchor="middle">3</text>
<circle cx="637.6" cy="291" r="8" fill="#111"/>
<text x="637.6" y="275" font-size="9" text-anchor="middle">4</text>
<circle cx="613.6" cy="291" r="8" fill="#111"/>
<text x="613.6" y="275" font-size="9" text-anchor="middle">5</text>

<text x="40" y="364" font-size="13" font-weight="bold">KAV-C4-5H</text>
<text x="40" y="384" font-size="11">C4, 62 cm</text>
<line x1="210" y1="369" x2="801.3" y2="369" stroke="#4a2a10" stroke-width="12" stroke-linecap="round"/>
<text x="198" y="399" font-size="10" text-anchor="end">labium</text>
<text x="809.3" y="399" font-size="10">foot</text>
<circle cx="736.8" cy="369" r="8" fill="#111"/>
<text x="736.8" y="353" font-size="9" text-anchor="middle">1</text>
<circle cx="707.2" cy="369" r="8" fill="#111"/>
<text x="707.2" y="353" font-size="9" text-anchor="middle">2</text>
<circle cx="628.1" cy="369" r="8" fill="#111"/>
<text x="628.1" y="353" font-size="9" text-anchor="middle">3</text>
<circle cx="604.6" cy="369" r="8" fill="#111"/>
<text x="604.6" y="353" font-size="9" text-anchor="middle">4</text>
<circle cx="582.5" cy="369" r="8" fill="#111"/>
<text x="582.5" y="353" font-size="9" text-anchor="middle">5</text>

<text x="40" y="442" font-size="13" font-weight="bold">KAV-A3-7H</text>
<text x="40" y="462" font-size="11">A3, 90 cm</text>
<line x1="210" y1="447" x2="1080.0" y2="447" stroke="#4a2a10" stroke-width="12" stroke-linecap="round"/>
<text x="198" y="477" font-size="10" text-anchor="end">labium</text>
<text x="1088.0" y="477" font-size="10">foot</text>
<circle cx="985.1" cy="447" r="8" fill="#111"/>
<text x="985.1" y="431" font-size="9" text-anchor="middle">1</text>
<circle cx="941.6" cy="447" r="8" fill="#111"/>
<text x="941.6" y="431" font-size="9" text-anchor="middle">2</text>
<circle cx="900.5" cy="447" r="8" fill="#111"/>
<text x="900.5" y="431" font-size="9" text-anchor="middle">3</text>
<circle cx="825.2" cy="447" r="8" fill="#111"/>
<text x="825.2" y="431" font-size="9" text-anchor="middle">4</text>
<circle cx="790.6" cy="447" r="8" fill="#111"/>
<text x="790.6" y="431" font-size="9" text-anchor="middle">5</text>
<circle cx="758.1" cy="447" r="8" fill="#111"/>
<text x="758.1" y="431" font-size="9" text-anchor="middle">6</text>
<circle cx="727.3" cy="447" r="8" fill="#111"/>
<text x="727.3" y="431" font-size="9" text-anchor="middle">7</text>

<text x="40" y="520" font-size="13" font-weight="bold">KAV-AS3-7H</text>
<text x="40" y="540" font-size="11">A#3, 85 cm</text>
<line x1="210" y1="525" x2="1029.3" y2="525" stroke="#4a2a10" stroke-width="12" stroke-linecap="round"/>
<text x="198" y="555" font-size="10" text-anchor="end">labium</text>
<text x="1037.3" y="555" font-size="10">foot</text>
<circle cx="939.9" cy="525" r="8" fill="#111"/>
<text x="939.9" y="509" font-size="9" text-anchor="middle">1</text>
<circle cx="899.0" cy="525" r="8" fill="#111"/>
<text x="899.0" y="509" font-size="9" text-anchor="middle">2</text>
<circle cx="860.3" cy="525" r="8" fill="#111"/>
<text x="860.3" y="509" font-size="9" text-anchor="middle">3</text>
<circle cx="789.3" cy="525" r="8" fill="#111"/>
<text x="789.3" y="509" font-size="9" text-anchor="middle">4</text>
<circle cx="756.8" cy="525" r="8" fill="#111"/>
<text x="756.8" y="509" font-size="9" text-anchor="middle">5</text>
<circle cx="726.1" cy="525" r="8" fill="#111"/>
<text x="726.1" y="509" font-size="9" text-anchor="middle">6</text>
<circle cx="697.2" cy="525" r="8" fill="#111"/>
<text x="697.2" y="509" font-size="9" text-anchor="middle">7</text>

<text x="40" y="598" font-size="13" font-weight="bold">KAV-B3-7H</text>
<text x="40" y="618" font-size="11">B3, 69 cm</text>
<line x1="210" y1="603" x2="870.9" y2="603" stroke="#4a2a10" stroke-width="12" stroke-linecap="round"/>
<text x="198" y="633" font-size="10" text-anchor="end">labium</text>
<text x="878.9" y="633" font-size="10">foot</text>
<circle cx="798.8" cy="603" r="8" fill="#111"/>
<text x="798.8" y="587" font-size="9" text-anchor="middle">1</text>
<circle cx="765.8" cy="603" r="8" fill="#111"/>
<text x="765.8" y="587" font-size="9" text-anchor="middle">2</text>
<circle cx="734.6" cy="603" r="8" fill="#111"/>
<text x="734.6" y="587" font-size="9" text-anchor="middle">3</text>
<circle cx="677.4" cy="603" r="8" fill="#111"/>
<text x="677.4" y="587" font-size="9" text-anchor="middle">4</text>
<circle cx="651.1" cy="603" r="8" fill="#111"/>
<text x="651.1" y="587" font-size="9" text-anchor="middle">5</text>
<circle cx="626.4" cy="603" r="8" fill="#111"/>
<text x="626.4" y="587" font-size="9" text-anchor="middle">6</text>
<circle cx="603.0" cy="603" r="8" fill="#111"/>
<text x="603.0" y="587" font-size="9" text-anchor="middle">7</text>

</svg>