<?xml version="1.0" encoding="UTF-8"?>
<svg xmlns="http://www.w3.org/2000/svg" viewBox="0 0 1100 1280" width="1100" height="1280" font-family="Helvetica, Arial, sans-serif">
<rect x="0" y="0" width="1100" height="1280" fill="white" stroke="black" stroke-width="1"/>
<text x="32" y="36" font-size="18" font-weight="bold">Kaval + Alghosazi Fipple Flutes - Family overview</text>
<text x="32" y="56" font-size="11" fill="#444">11 members. Drawn to relative scale; longest member = 12.00". Governing model: open-pipe.</text>
<text x="32" y="110" font-size="13" font-weight="bold">KAV-GS3-5H</text>
<text x="32" y="130" font-size="10" fill="#666">G#3 (207.7 Hz)</text>
<text x="32" y="146" font-size="10" fill="#666">L = 12.000"</text>
<rect x="200" y="104" width="820.0" height="22" fill="#fafafa" stroke="black" stroke-width="1.2"/>
<line x1="200" y1="115.0" x2="1020.0" y2="115.0" stroke="#888" stroke-width="0.6" stroke-dasharray="4 2 1 2"/>
<text x="1028.0" y="118" font-size="9" fill="#444">12.00"</text>
<text x="32" y="210" font-size="13" font-weight="bold">KAV-A3-5H</text>
<text x="32" y="230" font-size="10" fill="#666">A3 (220.0 Hz)</text>
<text x="32" y="246" font-size="10" fill="#666">L = 12.000"</text>
<rect x="200" y="204" width="820.0" height="22" fill="#fafafa" stroke="black" stroke-width="1.2"/>
<line x1="200" y1="215.0" x2="1020.0" y2="215.0" stroke="#888" stroke-width="0.6" stroke-dasharray="4 2 1 2"/>
<text x="1028.0" y="218" font-size="9" fill="#444">12.00"</text>
<text x="32" y="310" font-size="13" font-weight="bold">KAV-B3-5H</text>
<text x="32" y="330" font-size="10" fill="#666">B3 (246.9 Hz)</text>
<text x="32" y="346" font-size="10" fill="#666">L = 12.000"</text>
<rect x="200" y="304" width="820.0" height="22" fill="#fafafa" stroke="black" stroke-width="1.2"/>
<line x1="200" y1="315.0" x2="1020.0" y2="315.0" stroke="#888" stroke-width="0.6" stroke-dasharray="4 2 1 2"/>
<text x="1028.0" y="318" font-size="9" fill="#444">12.00"</text>
<text x="32" y="410" font-size="13" font-weight="bold">KAV-C4-5H</text>
<text x="32" y="430" font-size="10" fill="#666">C4 (261.6 Hz)</text>
<text x="32" y="446" font-size="10" fill="#666">L = 12.000"</text>
<rect x="200" y="404" width="820.0" height="22" fill="#fafafa" stroke="black" stroke-width="1.2"/>
<line x1="200" y1="415.0" x2="1020.0" y2="415.0" stroke="#888" stroke-width="0.6" stroke-dasharray="4 2 1 2"/>
<text x="1028.0" y="418" font-size="9" fill="#444">12.00"</text>
<text x="32" y="510" font-size="13" font-weight="bold">KAV-A3-7H</text>
<text x="32" y="530" font-size="10" fill="#666">A3 (220.0 Hz)</text>
<text x="32" y="546" font-size="10" fill="#666">L = 12.000"</text>
<rect x="200" y="504" width="820.0" height="22" fill="#fafafa" stroke="black" stroke-width="1.2"/>
<line x1="200" y1="515.0" x2="1020.0" y2="515.0" stroke="#888" stroke-width="0.6" stroke-dasharray="4 2 1 2"/>
<text x="1028.0" y="518" font-size="9" fill="#444">12.00"</text>
<text x="32" y="610" font-size="13" font-weight="bold">KAV-AS3-7H</text>
<text x="32" y="630" font-size="10" fill="#666">A#3 (233.1 Hz)</text>
<text x="32" y="646" font-size="10" fill="#666">L = 12.000"</text>
<rect x="200" y="604" width="820.0" height="22" fill="#fafafa" stroke="black" stroke-width="1.2"/>
<line x1="200" y1="615.0" x2="1020.0" y2="615.0" stroke="#888" stroke-width="0.6" stroke-dasharray="4 2 1 2"/>
<text x="1028.0" y="618" font-size="9" fill="#444">12.00"</text>
<text x="32" y="710" font-size="13" font-weight="bold">KAV-B3-7H</text>
<text x="32" y="730" font-size="10" fill="#666">B3 (246.9 Hz)</text>
<text x="32" y="746" font-size="10" fill="#666">L = 12.000"</text>
<rect x="200" y="704" width="820.0" height="22" fill="#fafafa" stroke="black" stroke-width="1.2"/>
<line x1="200" y1="715.0" x2="1020.0" y2="715.0" stroke="#888" stroke-width="0.6" stroke-dasharray="4 2 1 2"/>
<text x="1028.0" y="718" font-size="9" fill="#444">12.00"</text>
<text x="32" y="810" font-size="13" font-weight="bold">ALG-AS3-J2</text>
<text x="32" y="830" font-size="10" fill="#666">A#3 (233.1 Hz)</text>
<text x="32" y="846" font-size="10" fill="#666">L = 12.000"</text>
<rect x="200" y="804" width="820.0" height="22" fill="#fafafa" stroke="black" stroke-width="1.2"/>
<line x1="200" y1="815.0" x2="1020.0" y2="815.0" stroke="#888" stroke-width="0.6" stroke-dasharray="4 2 1 2"/>
<text x="1028.0" y="818" font-size="9" fill="#444">12.00"</text>
<text x="32" y="910" font-size="13" font-weight="bold">ALG-AS3-SOLID</text>
<text x="32" y="930" font-size="10" fill="#666">A#3 (233.1 Hz)</text>
<text x="32" y="946" font-size="10" fill="#666">L = 12.000"</text>
<rect x="200" y="904" width="820.0" height="22" fill="#fafafa" stroke="black" stroke-width="1.2"/>
<line x1="200" y1="915.0" x2="1020.0" y2="915.0" stroke="#888" stroke-width="0.6" stroke-dasharray="4 2 1 2"/>
<text x="1028.0" y="918" font-size="9" fill="#444">12.00"</text>
<text x="32" y="1010" font-size="13" font-weight="bold">ALG-A3-J3</text>
<text x="32" y="1030" font-size="10" fill="#666">A3 (220.0 Hz)</text>
<text x="32" y="1046" font-size="10" fill="#666">L = 12.000"</text>
<rect x="200" y="1004" width="820.0" height="22" fill="#fafafa" stroke="black" stroke-width="1.2"/>
<line x1="200" y1="1015.0" x2="1020.0" y2="1015.0" stroke="#888" stroke-width="0.6" stroke-dasharray="4 2 1 2"/>
<text x="1028.0" y="1018" font-size="9" fill="#444">12.00"</text>
<text x="32" y="1110" font-size="13" font-weight="bold">ALG-B3-SOLID</text>
<text x="32" y="1130" font-size="10" fill="#666">B3 (246.9 Hz)</text>
<text x="32" y="1146" font-size="10" fill="#666">L = 12.000"</text>
<rect x="200" y="1104" width="820.0" height="22" fill="#fafafa" stroke="black" stroke-width="1.2"/>
<line x1="200" y1="1115.0" x2="1020.0" y2="1115.0" stroke="#888" stroke-width="0.6" stroke-dasharray="4 2 1 2"/>
<text x="1028.0" y="1118" font-size="9" fill="#444">12.00"</text>
<text x="32" y="1260" font-size="9" fill="#666">Generated by instrument-maker-v4 generate_drawings.py. Scale: 68.3 px/inch.</text>
</svg>
